<svg width="52" height="52" viewBox="0 0 52 52" fill="none" xmlns="http://www.w3.org/2000/svg">
<path d="M0 46.3217H1.98619C2.89122 46.3217 3.54851 46.4348 3.95711 46.661C4.36619 46.8872 4.57049 47.2466 4.57049 47.7396C4.57049 48.0743 4.48075 48.3487 4.30175 48.5631C4.12275 48.7776 3.88456 48.9066 3.58766 48.9502V48.9883C3.99244 49.0675 4.28409 49.2157 4.46309 49.4327C4.64209 49.6497 4.73183 49.9383 4.73183 50.2985C4.73183 50.8096 4.5218 51.2079 4.10079 51.494C3.68026 51.7801 3.10889 51.9229 2.38716 51.9229H0V46.3217V46.3217ZM1.35325 48.5401H2.13894C2.50554 48.5401 2.77141 48.4902 2.93561 48.391C3.1003 48.2913 3.1824 48.1267 3.1824 47.8967C3.1824 47.6822 3.09314 47.5285 2.91413 47.4351C2.73513 47.3417 2.45207 47.2952 2.06495 47.2952H1.35325V48.5401V48.5401ZM1.35325 49.4826V50.9423H2.23536C2.60768 50.9423 2.88263 50.8799 3.06068 50.7547C3.23872 50.6294 3.32703 50.438 3.32703 50.18C3.32703 49.7155 2.9485 49.4826 2.19193 49.4826H1.35325V49.4826ZM11.8002 49.1148C11.8002 50.0418 11.5382 50.7547 11.0145 51.2527C10.4909 51.7508 9.74003 52 8.76197 52C7.78391 52 7.03306 51.7508 6.50943 51.2527C5.98531 50.7547 5.72373 50.0397 5.72373 49.1072C5.72373 48.1748 5.98627 47.4632 6.51181 46.9714C7.03736 46.4796 7.79012 46.2338 8.77104 46.2338C9.75197 46.2338 10.5019 46.4817 11.0217 46.9768C11.5405 47.4724 11.8002 48.1853 11.8002 49.1148V49.1148ZM7.14237 49.1148C7.14237 49.7406 7.27746 50.2118 7.54859 50.5285C7.81924 50.8452 8.22354 51.0035 8.76197 51.0035C9.84171 51.0035 10.3816 50.3739 10.3816 49.1148C10.3816 47.8531 9.84457 47.2223 8.77057 47.2223C8.23213 47.2223 7.82592 47.3811 7.55241 47.6994C7.27889 48.0178 7.14237 48.489 7.14237 49.1148V49.1148ZM18.9168 49.1148C18.9168 50.0418 18.6548 50.7547 18.1311 51.2527C17.6075 51.7508 16.8566 52 15.8786 52C14.9005 52 14.1497 51.7508 13.626 51.2527C13.1019 50.7547 12.8403 50.0397 12.8403 49.1072C12.8403 48.1748 13.1029 47.4632 13.6284 46.9714C14.154 46.4796 14.9067 46.2338 15.8876 46.2338C16.8686 46.2338 17.6185 46.4817 18.1383 46.9768C18.6567 47.4724 18.9168 48.1853 18.9168 49.1148ZM14.2585 49.1148C14.2585 49.7406 14.3936 50.2118 14.6647 50.5285C14.9354 50.8452 15.3397 51.0035 15.8781 51.0035C16.9578 51.0035 17.4977 50.3739 17.4977 49.1148C17.4977 47.8531 16.9607 47.2223 15.8867 47.2223C15.3483 47.2223 14.942 47.3811 14.6685 47.6994C14.395 48.0178 14.2585 48.489 14.2585 49.1148ZM22.7016 51.9229H21.3484V47.3103H19.6152V46.3217H24.4348V47.3103H22.7016V51.9229ZM29.1843 50.3676C29.1843 50.8736 28.9771 51.272 28.5623 51.5631C28.1475 51.8542 27.5704 52 26.8315 52C26.1504 52 25.548 51.8873 25.0243 51.6628V50.5595C25.4549 50.7279 25.8196 50.8468 26.1179 50.916C26.4162 50.9851 26.6888 51.0194 26.9365 51.0194C27.2334 51.0194 27.4611 50.9696 27.6196 50.8703C27.7786 50.7706 27.8578 50.6227 27.8578 50.4259C27.8578 50.3161 27.8229 50.2185 27.7533 50.1327C27.6836 50.0472 27.5809 49.9647 27.4454 49.8855C27.3098 49.8064 27.0344 49.6799 26.6181 49.5064C26.2282 49.3456 25.9356 49.191 25.7408 49.0427C25.5456 48.8945 25.39 48.7223 25.2735 48.5258C25.157 48.329 25.0988 48.099 25.0988 47.8364C25.0988 47.3409 25.2902 46.9513 25.673 46.6677C26.0558 46.3841 26.5847 46.2426 27.2602 46.2426C27.5919 46.2426 27.9084 46.2769 28.2096 46.346C28.5108 46.4151 28.8258 46.5119 29.1547 46.6371L28.7179 47.5603C28.3776 47.438 28.096 47.3522 27.8731 47.3036C27.6502 47.255 27.4315 47.2307 27.2163 47.2307C26.9599 47.2307 26.7637 47.283 26.6267 47.3878C26.4897 47.4925 26.4215 47.629 26.4215 47.7978C26.4215 47.9026 26.4492 47.9939 26.5045 48.0718C26.5599 48.1497 26.6477 48.2251 26.7685 48.298C26.8893 48.3709 27.1752 48.5016 27.6263 48.6909C28.223 48.9414 28.632 49.1923 28.853 49.4436C29.074 49.6949 29.1843 50.0024 29.1843 50.3676V50.3676ZM32.8039 51.9229H31.4507V47.3103H29.7175V46.3217H34.5372V47.3103H32.8039V51.9229ZM36.8728 49.7737V51.9229H35.5195V46.3217H37.3792C38.2465 46.3217 38.8881 46.4604 39.3043 46.7373C39.7205 47.0145 39.9287 47.4355 39.9287 47.9997C39.9287 48.3294 39.8256 48.6222 39.6189 48.879C39.4122 49.1357 39.1196 49.3368 38.7415 49.4821C39.7019 50.7413 40.3277 51.5547 40.6189 51.9225H39.1172L37.5935 49.7733H36.8728V49.7737ZM36.8728 48.8082H37.3095C37.7372 48.8082 38.0532 48.7458 38.257 48.6205C38.4608 48.4953 38.5625 48.2984 38.5625 48.0303C38.5625 47.7648 38.4585 47.5758 38.2503 47.4632C38.0422 47.3509 37.72 47.2948 37.2833 47.2948H36.8728V48.8082V48.8082ZM45.3292 51.9229L44.8662 50.5896H42.5392L42.0762 51.9229H40.6179L42.8705 46.2991H44.5249L46.7865 51.9229H45.3292V51.9229ZM44.5431 49.5936C44.1154 48.3855 43.8743 47.7023 43.8204 47.544C43.7664 47.3857 43.7283 47.2604 43.7049 47.1687C43.6089 47.4954 43.334 48.3038 42.8795 49.5936H44.5431ZM52 48.0689C52 48.6716 51.7852 49.1328 51.3561 49.4516C50.927 49.7712 50.3164 49.9308 49.5245 49.9308H48.9441V51.9229H47.5909V46.3217H49.6295C50.4038 46.3217 50.9923 46.4679 51.3957 46.7603C51.7986 47.0531 52 47.4891 52 48.0689V48.0689ZM48.9441 48.9577H49.3895C49.8057 48.9577 50.1169 48.8857 50.3236 48.7412C50.5303 48.5966 50.6334 48.3868 50.6334 48.1112C50.6334 47.8326 50.5465 47.6269 50.3737 47.4942C50.2004 47.3614 49.9288 47.2948 49.5594 47.2948H48.9436V48.9577H48.9441ZM30.75 22.9372C29.8034 22.6637 28.4406 22.6193 26.6616 22.6193H20.272V30.9968H27.1571C28.3514 30.9968 29.19 30.8925 29.6731 30.8137C30.5242 30.6805 31.2359 30.4242 31.8077 30.1117C32.3796 29.8 32.8498 29.3288 33.2183 28.7323C33.5863 28.1358 33.771 27.4393 33.771 26.6585C33.771 25.7436 33.5042 24.9913 32.9705 24.317C32.4373 23.6422 31.697 23.2103 30.75 22.9372ZM29.7686 19.3298C30.7089 19.0844 31.4178 18.6404 31.8937 18.072C32.3705 17.5035 32.6087 16.7722 32.6087 15.9131C32.6087 15.0992 32.3863 14.3737 31.9414 13.7542C31.4965 13.1351 30.8612 12.715 30.0359 12.4862C29.2091 12.2584 27.7924 12.1474 25.7847 12.1474H20.272V19.6871H26.242C27.8817 19.6871 29.0569 19.52 29.7686 19.3298V19.3298ZM51.2988 5.91703C51.2988 2.64897 48.2796 0 44.5555 0H7.44453C3.72035 0 0.701206 2.64897 0.701206 5.91703V38.4837C0.701206 41.7518 3.72035 44.4008 7.44453 44.4008H44.5555C48.2796 44.4008 51.2988 41.7518 51.2988 38.4837V5.91703V5.91703ZM36.7735 29.8532C36.2212 30.8401 35.5376 31.6012 34.7247 32.1365C33.9114 32.6714 32.8913 33.1611 31.665 33.4342C30.4387 33.7077 28.9361 33.9289 27.1571 33.9289H16.4533V9.21525H26.9857C29.1208 9.21525 30.8325 9.47496 32.1223 9.9709C33.4125 10.4673 34.4221 11.2363 35.1539 12.2676C35.8842 13.2993 36.2498 14.3812 36.2498 15.5076C36.2498 16.5556 35.9252 17.5437 35.278 18.4695C34.6298 19.3952 33.6512 20.1429 32.3424 20.7113C34.0321 21.1461 35.3319 21.8887 36.2403 22.9368C37.1487 23.9852 37.6031 25.223 37.6031 26.6505C37.6026 27.7991 37.3267 28.8668 36.7735 29.8532V29.8532Z" fill="#5B4282"/>
</svg>
