<svg width="52" height="52" viewBox="0 0 52 52" fill="none" xmlns="http://www.w3.org/2000/svg">
<path d="M0 10.355L4.73255 47.8373L25.9677 52L47.2622 47.8319L52 10.355H0ZM40.5924 31.2672L39.2141 40.3349L39.2194 41.1115L26 43.7189L25.9894 43.7255L12.6645 41.1471L11.7631 33.9645H18.2974L18.7607 37.5953L26.0023 38.9601L26 38.9663V38.9531L33.2692 37.5055L34.0364 31.4793H18.8416L18.7114 30.5038L18.4147 28.1648L18.2592 26.923H34.6147L35.2094 22.3668H10.2985L10.1677 21.2945L9.87097 18.7968L9.71554 17.3964H42.3238L42.1672 18.7774L40.5924 31.2672ZM40.6628 5.53952L36.4698 2.071H40.6628V0H31.2786V1.80716L36.1994 4.97041H31.2786V7.04141H40.6628V5.53952ZM29.5191 5.53952L25.5267 2.071H29.5191V0H20.7214V1.80716L25.2569 4.97041H20.7214V7.04141H29.5191V5.53952ZM18.9619 4.97041H14.2698V2.071H18.9619V0H10.7507V7.04141H18.9619V4.97041Z" fill="#1572B6"/>
</svg>
