<svg width="52" height="52" viewBox="0 0 52 52" fill="none" xmlns="http://www.w3.org/2000/svg">
<path d="M51.9054 10.1934L47.1849 47.6968L25.9662 51.8686L4.80595 47.7026L0.0903778 10.1934H51.9054Z" fill="#E44D26"/>
<path d="M25.9978 48.6797L43.1436 45.3087L47.1774 13.2603H25.9978V48.6797Z" fill="#E44D26"/>
<path d="M16.8214 22.4611H25.9978V17.8608H9.73233L9.8875 19.095L11.4819 31.7723H25.9978V27.1719H17.4143L16.8214 22.4611V22.4611ZM18.2834 34.0725H11.7717L12.6804 41.2958L25.968 43.9116L25.9978 43.9059V39.1196L25.9694 39.1249L18.7452 37.7415L18.2834 34.0725V34.0725Z" fill="black"/>
<path d="M4.91116 0H8.20761V2.30975H11.2232V0H14.5198V6.9945H11.2234V4.65234H8.20781V6.9945H4.91137V0H4.91116ZM18.8545 2.31955H15.9529V0H25.055V2.31955H22.1516V6.9945H18.8551V2.31955H18.8549H18.8545ZM26.4995 0H29.9367L32.0511 2.45768L34.1634 0H37.602V6.9945H34.319V3.52765L32.0511 6.01457H31.9942L29.7249 3.52765V6.9945H26.4995V0ZM39.2425 0H42.54V4.68259H47.1757V6.9945H39.2423V0H39.2425Z" fill="#E44D26"/>
<path d="M25.9755 31.7723H33.9631L33.21 37.7386L25.9753 39.1234V43.9095L39.2734 41.2958L39.3708 40.5185L40.8954 28.4073L41.0536 27.1719H25.9755V31.7723ZM25.9755 22.4499V22.4611H41.6438L41.7738 21.4272L42.0695 19.095L42.2245 17.8608H25.9755V22.45V22.4499Z" fill="black"/>
</svg>
