<svg width="52" height="52" viewBox="0 0 52 52" fill="none" xmlns="http://www.w3.org/2000/svg">
<path d="M0.8125 0.40625V51.1875H51.5938V0.40625H0.8125ZM27.6733 43.6772C26.9238 45.2002 25.493 46.2008 23.8351 46.6838C21.2875 47.2688 18.8508 46.9353 17.0381 45.8473C15.8251 45.1031 14.8777 43.9575 14.2346 42.6376L18.1021 40.2691C18.1358 40.2833 18.2374 40.467 18.3731 40.7042C18.8663 41.5305 19.2916 42.1155 20.1277 42.5262C20.9491 42.8066 22.7524 42.9857 23.4487 41.5403C23.8741 40.805 23.7388 38.4414 23.7388 35.8264C23.7384 31.7172 23.7575 27.625 23.7575 23.5625H28.5143C28.5143 28.0312 28.5387 32.2636 28.5143 36.6242C28.5244 39.2974 28.7564 41.6804 27.6733 43.6772ZM47.4065 42.3333C45.7531 47.9891 36.5345 48.1727 32.8506 44.436C32.0722 43.5565 31.5843 43.097 31.12 42.0818C33.0777 40.9557 33.0777 40.9557 34.9826 39.8535C36.0173 41.444 36.974 42.3187 38.6953 42.6766C41.0304 42.9618 43.3798 42.1594 42.8529 39.6792C42.3113 37.6537 38.0713 37.1609 35.1857 34.9948C32.2563 33.0273 31.5697 28.2466 33.9771 25.5149C34.7795 24.5046 36.1477 23.7506 37.5834 23.3882L39.0817 23.1944C41.9583 23.1363 43.7564 23.896 45.0763 25.3699C45.4435 25.742 45.7433 26.1434 46.304 27.0132C44.7716 27.9898 44.7765 27.9805 42.5815 29.4015C42.1127 28.3916 41.3347 27.7578 40.5125 27.4824C39.236 27.0957 37.6265 27.5161 37.2925 28.8649C37.1768 29.2805 37.2007 29.6672 37.3848 30.3538C37.9019 31.5331 39.6374 32.0458 41.1942 32.7612C45.6755 34.5788 47.1888 36.5276 47.5609 38.8473C47.9192 40.8444 47.4744 42.1399 47.4065 42.3333Z" fill="#F0DB4F"/>
</svg>
