<svg width="52" height="52" viewBox="0 0 52 52" fill="none" xmlns="http://www.w3.org/2000/svg">
<path fill-rule="evenodd" clip-rule="evenodd" d="M33.9573 13.2905C32.8552 9.82905 31.0875 6.76545 28.5964 4.1292C27.9667 3.46235 27.2667 2.85142 26.8274 2.02191C26.5498 1.49679 26.2852 0.96442 26.0148 0.435889L25.843 0L25.7952 0.171623C25.7727 1.03401 25.2886 1.61847 24.6859 2.1645C24.0071 2.77842 23.3756 3.44527 22.7239 4.0895L20.7196 6.7488L19.0991 9.7552L18.0152 12.7074L17.9826 12.7531C17.3863 14.7293 17.0922 16.7614 16.9479 18.8132C16.8933 19.5847 16.9559 20.3668 16.9987 21.1421C17.06 22.2504 17.2509 23.3395 17.537 24.4123C18.5768 28.3084 20.6874 31.5398 23.5733 34.2858C24.1091 34.796 24.6885 35.26 25.2475 35.745L25.4951 36.6023L25.7253 37.9326L25.8354 39.3213C25.8341 39.6031 25.8227 39.8862 25.8392 40.1671C25.8438 40.2392 25.9369 40.3058 25.9894 40.375L26.4566 40.5406L26.9429 40.7315L26.8595 39.4972L26.8557 38.2814L27.0238 36.4294L27.1456 36.0263L27.4948 35.4026C27.9256 35.0534 28.3873 34.7358 28.7797 34.3468C29.4894 33.6437 30.1979 32.9307 30.8331 32.1601C31.6571 31.1607 32.3664 30.0699 32.9361 28.9001C33.3165 28.1176 33.6754 27.3192 33.9721 26.5017C34.2336 25.781 34.3957 25.0233 34.6018 24.2817L34.656 24.1216C35.0813 22.1202 35.1529 20.0983 34.9967 18.0635C34.871 16.4237 34.4888 14.8411 33.9573 13.2905V13.2905ZM25.5353 34.7541C25.6005 34.425 25.6813 34.0975 25.7401 33.7671C25.6813 34.0975 25.6009 34.425 25.5353 34.7541ZM26.9814 34.9812L26.708 34.3771L26.9814 34.9812L27.3831 35.3275L26.9814 34.9812ZM43.9752 42.6347C43.6256 41.9589 43.1127 41.4457 42.4347 41.1089C41.8667 40.8271 41.256 40.7033 40.628 40.6854C40.1574 40.6717 39.6851 40.696 39.2136 40.702C38.795 40.7071 38.376 40.7144 37.9575 40.7105C37.4653 40.7054 36.9731 40.6905 36.4809 40.6764C36.3992 40.6738 36.3412 40.6905 36.3031 40.7742C36.2435 40.9044 36.1728 41.0299 36.0996 41.1725L36.1817 41.1989C36.4259 41.2425 36.6713 41.2796 36.9143 41.3287C37.2266 41.3915 37.3671 41.5725 37.3815 41.8381C37.4027 42.2163 37.4111 42.5954 37.4099 42.9745C37.4035 44.4747 37.3929 45.9749 37.3819 47.4747C37.3811 47.5738 37.3794 47.6771 37.3527 47.7701C37.3218 47.8777 37.2884 48.0169 37.2088 48.0699C37.0713 48.1621 36.9007 48.2244 36.7369 48.2513C36.4995 48.2906 36.4597 48.3012 36.3857 48.5369L36.3535 48.6547C36.318 48.7832 36.337 48.8084 36.4699 48.8097C37.2325 48.8182 37.9947 48.8349 38.7569 48.8323C39.4523 48.8298 40.1476 48.8725 40.8404 48.7405C41.4951 48.6163 42.1063 48.3986 42.6641 48.0301C43.3878 47.5516 43.9083 46.912 44.183 46.0774C44.4047 45.4033 44.4543 44.7155 44.3789 44.0107C44.3277 43.5244 44.1982 43.0663 43.9752 42.6347V42.6347ZM42.6391 46.7592C42.2311 47.5251 41.6225 48.0365 40.7528 48.1715C40.2081 48.2556 39.6626 48.2312 39.1433 48.0233C38.8145 47.8918 38.6922 47.6054 38.682 47.2668C38.6723 46.9351 38.6685 46.6029 38.6681 46.2712C38.6664 45.104 38.6664 43.9368 38.6681 42.77C38.6689 42.4024 38.6753 42.034 38.6812 41.666C38.6854 41.4073 38.7392 41.3206 38.9893 41.2997C40.088 41.2066 41.1363 41.3262 42.0068 42.1062C42.5451 42.5886 42.8515 43.2038 42.9789 43.9103C43.0318 44.2049 43.0479 44.5063 43.0809 44.8052C43.0543 45.4874 42.9628 46.1513 42.6391 46.7592ZM51.8605 45.4951C51.6438 44.9631 51.2333 44.6297 50.7174 44.4162C50.5413 44.3432 50.3598 44.283 50.1698 44.2122L50.2362 44.1695C50.4415 44.0367 50.67 43.9295 50.8469 43.766C51.2769 43.3686 51.4555 42.8686 51.3717 42.2748C51.2921 41.71 51.0128 41.2954 50.5138 41.0265C50.061 40.7831 49.5726 40.6943 49.0673 40.6948C48.1929 40.6956 47.3181 40.7088 46.4438 40.7105C46.1425 40.711 45.8411 40.6883 45.5398 40.6841C45.4814 40.6832 45.3946 40.6982 45.3697 40.7374C45.3007 40.8442 45.255 40.9671 45.2059 41.0858C45.1775 41.155 45.2055 41.193 45.2838 41.2032C45.4941 41.2322 45.704 41.2685 45.9148 41.3001C46.2059 41.3441 46.3469 41.4969 46.3646 41.7928L46.3684 41.9683C46.3689 42.8883 46.3718 43.8083 46.368 44.7283C46.3634 45.6466 46.3532 46.5658 46.3422 47.4845C46.3409 47.6002 46.3253 47.7164 46.3088 47.8312C46.2838 48.0045 46.192 48.1241 46.0159 48.1616L45.5178 48.2607C45.459 48.2726 45.3739 48.2709 45.3498 48.3076C45.2584 48.4455 45.1847 48.5962 45.1949 48.7781L45.2461 48.7922L46.9191 48.8336L47.2547 48.8323C47.8336 48.8255 48.4134 48.837 48.9915 48.8071C49.6175 48.7756 50.2053 48.5881 50.7487 48.2658C51.3272 47.9221 51.7725 47.4692 51.9308 46.7878C52.0323 46.3528 52.0327 45.9152 51.8605 45.4951V45.4951ZM47.6102 41.5755C47.6127 41.3906 47.6935 41.3104 47.8755 41.3057C48.3237 41.2933 48.7689 41.2959 49.2014 41.4517C49.7609 41.6532 50.105 42.1399 50.0987 42.7346C50.0957 42.963 50.0991 43.1893 50.0157 43.4087C49.8511 43.8407 49.5354 44.0687 49.0876 44.1131C48.854 44.137 48.6183 44.1396 48.41 44.1507L47.7151 44.12C47.6229 44.1165 47.5827 44.0756 47.5831 43.9799L47.6102 41.5755V41.5755ZM50.4906 47.3364C50.2667 47.8278 49.8587 48.0861 49.3479 48.1757C48.9395 48.2475 48.5277 48.2265 48.1239 48.1215C47.8252 48.0442 47.7033 47.8022 47.6436 47.5336C47.6034 47.3539 47.6102 47.14 47.6068 46.953C47.6013 46.6644 47.6055 46.0654 47.6055 46.0654H47.5996C47.5996 45.6385 47.6008 45.2688 47.5983 44.8594C47.5979 44.771 47.6127 44.727 47.7198 44.7305C48.0998 44.742 48.4811 44.7484 48.8612 44.7633C49.201 44.7766 49.5193 44.8782 49.8185 45.0408C50.2739 45.2884 50.5481 45.6676 50.6234 46.1884C50.681 46.5833 50.6565 46.9718 50.4906 47.3364V47.3364ZM8.76714 47.7966L8.77518 45.4754C8.77645 45.1262 8.73244 44.7838 8.61901 44.4525C8.30626 43.5402 7.44375 43.1248 6.54569 43.4522C6.13729 43.6012 5.77121 43.8271 5.42163 44.0832C5.21807 44.2327 5.21807 44.2327 5.07079 44.0196C4.65392 43.4168 4.05846 43.2106 3.36523 43.433C2.91705 43.5765 2.52515 43.822 2.154 44.1071C2.11929 44.1336 2.04946 44.1631 2.02872 44.1473C1.99402 44.1212 1.9699 44.0593 1.97074 44.0128L1.99614 43.6004C1.99825 43.5137 1.98175 43.4266 1.97328 43.3357C1.80569 43.3942 1.67195 43.4527 1.53187 43.4868C1.09892 43.5936 0.663012 43.6918 0.227525 43.7921C0.122145 43.8164 0.0108392 43.8484 0.000682045 43.9705C-0.00989831 44.0905 0.104793 44.1106 0.193668 44.1464C0.380728 44.2224 0.566519 44.3031 0.751464 44.3851C0.906784 44.4542 0.964764 44.5793 0.963917 44.7475C0.960955 45.4669 0.96561 46.1854 0.961378 46.9048C0.959685 47.1972 0.946142 47.4892 0.933023 47.7817C0.921173 48.0408 0.833567 48.1493 0.584718 48.2146C0.452675 48.2496 0.318516 48.2731 0.185627 48.3047C0.156425 48.3115 0.106486 48.3303 0.106062 48.3448C0.100561 48.4716 0.0937892 48.6014 0.11495 48.7247C0.119182 48.7469 0.252071 48.747 0.32571 48.7555L0.375227 48.7525C0.888162 48.7448 1.4011 48.7367 1.91446 48.7312C2.18658 48.7282 2.45829 48.7307 2.75369 48.7307L2.78543 48.3166C2.61615 48.2854 2.46506 48.262 2.31609 48.2291C2.08374 48.1779 1.98471 48.0536 1.97879 47.8171L1.97455 47.4786C1.97201 46.6004 1.96863 45.7226 1.96863 44.8444C1.96863 44.7168 2.02111 44.6156 2.13241 44.5392C2.36814 44.3787 2.61699 44.251 2.8925 44.1797C3.47315 44.0299 3.97678 44.2382 4.20024 44.7364C4.27091 44.8935 4.32635 45.0673 4.34201 45.2381C4.42412 46.1184 4.38857 46.9996 4.33905 47.8799C4.32847 48.0699 4.24002 48.1655 4.05423 48.212L3.61747 48.3051C3.58234 48.3141 3.53113 48.2901 3.5286 48.3196C3.51886 48.4413 3.52436 48.6278 3.52436 48.6278H3.62847L4.95821 48.6718C5.3226 48.671 5.68741 48.7154 6.05138 48.7247C6.11655 48.726 6.17453 48.7359 6.17834 48.6599C6.18426 48.5395 6.17919 48.4263 6.17368 48.3059L6.10428 48.2936L5.72973 48.2086C5.47707 48.1484 5.38989 48.0515 5.38905 47.7936C5.38608 47.1579 5.39455 46.5227 5.38905 45.8874C5.38608 45.5241 5.37212 45.1608 5.34884 44.7983C5.34249 44.7019 5.3573 44.6387 5.43348 44.5844C5.65779 44.4231 5.90029 44.2988 6.16649 44.228C6.98541 44.0102 7.65578 44.4632 7.6981 45.3149C7.73958 46.1363 7.72222 46.9607 7.71588 47.7838C7.71376 48.0703 7.61981 48.1569 7.34006 48.2338L7.24357 48.259C6.95705 48.3281 6.95959 48.3281 6.97652 48.6351C6.98202 48.7312 7.00826 48.7559 7.10983 48.7534C7.69345 48.7401 8.27706 48.7367 8.86067 48.7316C9.09936 48.7294 9.33806 48.7316 9.59791 48.7316L9.65081 48.332C9.4227 48.2709 9.21236 48.2257 9.00922 48.1587C8.82978 48.0972 8.76629 47.9879 8.76714 47.7966V47.7966ZM28.8652 44.2783C29.1055 44.0534 29.1072 43.7562 29.0399 43.4262C28.8495 43.6273 28.6362 43.7199 28.3928 43.7374C28.0666 43.7609 27.7462 43.7323 27.4423 43.6012C26.6204 43.2452 25.8112 43.2704 25.0046 43.661C24.3262 43.9889 23.9089 44.4999 23.867 45.2748C23.8403 45.7713 23.9326 46.2413 24.261 46.6362C24.4578 46.8728 24.7105 47.026 24.9953 47.1319C25.118 47.1776 25.1273 47.2365 25.0245 47.3155C24.9492 47.374 24.8692 47.4269 24.7888 47.4777C24.6169 47.5866 24.4438 47.6942 24.2699 47.7996C24.1679 47.8619 24.1332 47.9413 24.1666 48.063C24.2644 48.4208 24.5162 48.6274 24.8311 48.7781L24.9458 48.8588L24.8455 48.96C24.5369 49.2123 24.2162 49.4505 23.9207 49.7182C23.6727 49.9432 23.5928 50.2446 23.6677 50.5772C23.8188 51.241 24.2551 51.6517 24.8742 51.8404C25.9564 52.1709 26.9725 51.9813 27.899 51.3345C28.4483 50.9507 28.8423 50.4512 28.9621 49.7639C29.0962 48.9916 28.6709 48.3213 27.9095 48.183C27.4059 48.0908 26.8904 48.0643 26.3809 48.0054C26.143 47.9781 25.9018 47.9618 25.6703 47.9068C25.4735 47.8598 25.3758 47.698 25.394 47.54C25.4122 47.3846 25.5759 47.2399 25.7634 47.225C26.1409 47.1942 26.5108 47.1349 26.8587 46.9744C27.7805 46.5491 28.2083 45.8046 28.1013 44.8022C28.0873 44.6673 28.0568 44.5341 28.0293 44.377C28.3243 44.4269 28.626 44.5025 28.8652 44.2783V44.2783ZM26.0681 48.9818C26.4431 48.9929 26.8697 49.0163 27.2819 49.138C27.6446 49.2447 27.943 49.4317 28.031 49.8403C28.1372 50.3338 27.9019 50.8248 27.4283 51.0886C26.9848 51.3354 26.5032 51.3559 26.0148 51.3051C25.5967 51.2615 25.2204 51.1155 24.9191 50.8039C24.5221 50.3936 24.52 49.8258 24.9174 49.4168C25.2725 49.0513 25.4625 48.9758 26.0681 48.9818V48.9818ZM27.0064 46.0095C26.788 46.7144 26.1524 46.8117 25.6542 46.5863C25.2297 46.3946 25.0448 46.0172 24.9479 45.5864C24.9102 45.4208 24.9013 45.2487 24.8793 45.0793C24.8882 44.8363 24.928 44.6032 25.0317 44.3847C25.3495 43.7114 26.1303 43.7515 26.5625 44.0563C26.7478 44.187 26.8769 44.3646 26.9577 44.5751C27.1372 45.0464 27.1554 45.5267 27.0064 46.0095ZM23.0409 48.2564C22.8906 48.2321 22.7396 48.2005 22.5935 48.1557C22.3362 48.0763 22.3049 48.0276 22.302 47.7531C22.2943 46.988 22.2893 46.223 22.2808 45.4584C22.2766 45.1143 22.2359 44.7749 22.1314 44.4461C21.8563 43.5795 21.0137 43.1141 20.1706 43.3699C19.7034 43.512 19.3022 43.7763 18.9285 44.0867L18.7922 44.1921L18.7927 44.0508C18.8015 43.8881 18.8189 43.7255 18.8176 43.5628C18.8168 43.4779 18.7846 43.3925 18.769 43.3178C18.4503 43.4147 18.1646 43.512 17.873 43.5863C17.5806 43.6606 17.2822 43.711 16.9864 43.7716C16.8395 43.8015 16.7316 43.8911 16.7341 43.9932C16.738 44.137 16.856 44.1648 16.9593 44.2079C17.1464 44.2852 17.333 44.3633 17.5179 44.4461C17.65 44.5055 17.7037 44.6156 17.7025 44.7586C17.6932 45.7529 17.6872 46.7477 17.6728 47.7424C17.6686 48.0566 17.5899 48.1394 17.2835 48.2086L17.1497 48.2355C16.8662 48.2846 16.8581 48.2961 16.8776 48.598L16.8793 48.6479C16.8759 48.764 16.9263 48.8016 17.0448 48.8003C17.7981 48.7913 18.5519 48.7871 19.3052 48.7901C19.6281 48.7914 19.6628 48.7657 19.656 48.431L19.6408 48.2872C19.4563 48.256 19.2798 48.2334 19.1071 48.1949C18.9264 48.1544 18.8616 48.0797 18.8447 47.8944C18.8291 47.7249 18.824 47.5528 18.8223 47.3821C18.8138 46.6004 18.807 45.8187 18.8032 45.0374C18.8024 44.8406 18.8384 44.6579 19.0178 44.5311C19.2899 44.3394 19.5879 44.2284 19.9171 44.2058C20.5892 44.1592 21.1 44.561 21.1364 45.2368C21.1813 46.0706 21.1677 46.9073 21.1783 47.7428C21.1792 47.8052 21.1682 47.8679 21.1597 47.9298C21.1436 48.0519 21.0844 48.1437 20.9616 48.1753C20.8419 48.2069 20.7204 48.2351 20.5981 48.2539C20.4157 48.2812 20.4119 48.2799 20.3979 48.4656L20.4026 48.5907C20.4242 48.8067 20.4246 48.8003 20.6413 48.7982C21.37 48.7922 22.0984 48.7884 22.8267 48.7892C23.1315 48.7901 23.153 48.7756 23.1556 48.4588L23.1547 48.3836C23.1594 48.3025 23.1234 48.2697 23.0409 48.2564V48.2564ZM33.22 43.4224C32.4561 43.2341 31.7316 43.3741 31.0434 43.7332C30.3748 44.082 29.9278 44.6212 29.7577 45.3657C29.5859 46.1184 29.668 46.8527 29.9977 47.5516C30.2122 48.0054 30.5424 48.3563 30.9918 48.5843C32.0439 49.1188 33.3309 48.8763 34.1562 48.1612C34.8075 47.5972 35.0466 46.8463 35.061 45.9169C35.0521 45.8238 35.0432 45.6445 35.0187 45.4669C34.8803 44.4551 34.1858 43.6606 33.22 43.4224V43.4224ZM33.7986 47.3308C33.5958 48.136 32.9056 48.4938 32.1269 48.2171C31.7295 48.0763 31.4324 47.8069 31.2326 47.4427C30.773 46.6059 30.6846 45.7162 30.9461 44.8035C31.1205 44.1955 31.6165 43.8629 32.2064 43.9048C32.7338 43.9419 33.1392 44.1972 33.4367 44.6301C33.7503 45.0869 33.8714 45.6065 33.9035 46.1521C33.909 46.2396 33.9044 46.3271 33.9044 46.4151L33.9416 46.4194C33.8951 46.7238 33.8731 47.0341 33.7986 47.3308V47.3308ZM14.0074 43.4091C13.2037 43.2238 12.4508 43.407 11.7533 43.819C11.1503 44.175 10.7605 44.707 10.6111 45.402C10.471 46.0514 10.5281 46.6896 10.7562 47.3116C10.8951 47.6907 11.1054 48.0242 11.4139 48.2842C12.0636 48.8311 12.8228 48.9694 13.6307 48.817C14.3146 48.6876 14.9156 48.3811 15.3524 47.8077C15.7612 47.2715 15.9169 46.6559 15.933 45.9886C15.9089 45.7773 15.903 45.5621 15.8585 45.3559C15.6376 44.3266 15.0409 43.6469 14.0074 43.4091V43.4091ZM14.6629 47.3283C14.467 48.1292 13.7657 48.4959 12.9925 48.2193C12.4961 48.0412 12.1727 47.6745 11.9683 47.2045C11.6408 46.4492 11.5739 45.6633 11.7859 44.8666C11.9484 44.2574 12.4381 43.8087 13.1876 43.9163C13.6476 43.9821 14.0065 44.219 14.274 44.596C14.6354 45.1044 14.7544 45.6868 14.7709 46.2985V46.4236L14.8013 46.4283C14.7569 46.7289 14.7349 47.0346 14.6629 47.3283V47.3283Z" fill="#4FAA41"/>
</svg>
