<svg width="52" height="52" viewBox="0 0 52 52" fill="none" xmlns="http://www.w3.org/2000/svg">
<path d="M49.9448 11.5221L28.5145 0.510887C27.163 -0.170296 25.4032 -0.170296 24.041 0.510887L2.38179 11.5221C0.987028 12.2321 0 13.5665 0 14.9938V36.9869C0 38.4142 1.01279 39.749 2.40755 40.4629L8.12998 43.339C10.8651 44.5311 11.8317 44.5311 13.0763 44.5311C17.126 44.5311 19.4393 42.3641 19.4393 38.5845V16.8718C19.4393 16.5651 19.259 16.1089 18.9188 16.1089H16.1861C15.8401 16.1089 15.0654 16.5651 15.0654 16.8713V38.584C15.0654 40.2595 13.3528 41.9267 10.1521 40.5106L4.23921 37.4948C4.03316 37.3958 3.88785 37.1967 3.88785 36.9869V14.9938C3.88785 14.7865 4.15757 14.5784 4.36508 14.4721L25.9543 3.47988C26.156 3.37882 26.4524 3.37882 26.6536 3.47988L47.9795 14.4696C48.1836 14.5784 48.1117 14.78 48.1117 14.9938V36.9869C48.1117 37.1967 48.2006 37.401 47.9989 37.5021L26.5739 48.5008C26.3902 48.5984 26.1623 48.5984 25.9611 48.5008L20.4661 45.5984C20.3004 45.5133 20.1036 45.4827 19.9447 45.5614C18.4158 46.3282 18.1339 46.4301 16.6998 46.8701C16.347 46.9789 15.8265 47.1676 16.899 47.6996L24.0906 51.4642C24.7792 51.8168 25.5616 52 26.3489 52C27.1469 52 27.9284 51.8168 28.617 51.4642L49.9443 40.4629C51.3391 39.7439 52 38.4142 52 36.9869V14.9938C52 13.5665 51.3391 12.2355 49.9448 11.5221V11.5221ZM33.003 33.5018C27.3044 33.5018 26.0491 32.1107 25.6307 29.6031C25.5821 29.333 25.323 29.0101 25.0125 29.0101H22.2273C21.8828 29.0101 21.6058 29.3799 21.6058 29.6835C21.6058 32.8942 23.5784 36.7843 33.0035 36.7843C39.8262 36.7843 43.7378 34.4385 43.7378 30.2869C43.7378 26.1705 40.595 25.0903 33.9784 24.3153C27.2903 23.5331 26.6109 23.1379 26.6109 21.7514C26.6109 20.6084 27.1863 19.0839 32.1384 19.0839C36.5633 19.0839 38.1942 19.9242 38.8654 22.5633C38.9227 22.8115 39.1788 22.9895 39.468 22.9895H42.2643C42.4364 22.9895 42.6006 22.928 42.7212 22.8192C42.8378 22.7022 42.8995 22.5556 42.884 22.3982C42.451 17.8535 39.0389 15.7356 32.1379 15.7356C25.9995 15.7356 22.3376 18.0294 22.3376 21.8744C22.3376 26.0449 25.981 27.1974 31.8736 27.7131C38.9227 28.3246 39.4709 29.2363 39.4709 30.4632C39.4709 32.594 37.5377 33.5018 33.003 33.5018Z" fill="#83CD29"/>
</svg>
