<svg width="52" height="52" viewBox="0 0 52 52" fill="none" xmlns="http://www.w3.org/2000/svg">
<path d="M26 23.075C28.0866 23.075 29.7781 21.3835 29.7781 19.2969C29.7781 17.2103 28.0866 15.5188 26 15.5188C23.9134 15.5188 22.2219 17.2103 22.2219 19.2969C22.2219 21.3835 23.9134 23.075 26 23.075Z" fill="#61DAFB"/>
<path d="M26 33.1906C28.9656 36.075 31.8906 37.7813 34.2469 37.7813C35.0187 37.7813 35.75 37.6188 36.3594 37.2531C38.4719 36.0344 39.2437 32.9875 38.5125 28.6406C38.3906 27.8688 38.2281 27.0969 38.025 26.2844C38.8375 26.0406 39.5687 25.7969 40.3 25.5531C44.4031 23.9688 46.6781 21.775 46.6781 19.3781C46.6781 16.9406 44.4031 14.7469 40.3 13.2031C39.5687 12.9188 38.8375 12.675 38.025 12.4719C38.2281 11.6594 38.3906 10.8875 38.5125 10.1156C39.2031 5.68752 38.4312 2.60002 36.3187 1.38127C35.7094 1.01565 34.9781 0.853149 34.2062 0.853149C31.8906 0.853149 28.925 2.5594 25.9594 5.44377C23.0344 2.5594 20.1094 0.853149 17.7531 0.853149C16.9812 0.853149 16.25 1.01565 15.6406 1.38127C13.5281 2.60002 12.7562 5.6469 13.4875 9.99377C13.6094 10.7656 13.7719 11.5375 13.975 12.35C13.1625 12.5938 12.4312 12.8375 11.7 13.0813C7.59687 14.6656 5.32187 16.8594 5.32187 19.2563C5.32187 21.6938 7.59687 23.8875 11.7 25.4313C12.4312 25.7156 13.1625 25.9594 13.975 26.1625C13.7719 26.975 13.6094 27.7469 13.4875 28.5188C12.7969 32.8656 13.5687 35.9531 15.6406 37.1313C16.25 37.4969 16.9812 37.6594 17.7531 37.6594C20.1094 37.7406 23.0344 36.0344 26 33.1906ZM23.725 27.7063C24.4562 27.7469 25.2281 27.7469 26 27.7469C26.7719 27.7469 27.5437 27.7469 28.275 27.7063C27.5437 28.6813 26.7719 29.575 26 30.4281C25.2281 29.575 24.4562 28.6813 23.725 27.7063ZM18.6875 23.5219C19.0937 24.2125 19.4594 24.8625 19.9062 25.5125C18.6469 25.35 17.4687 25.1469 16.3312 24.9031C16.6969 23.8063 17.1031 22.6688 17.5906 21.5313C17.9156 22.1813 18.2812 22.8719 18.6875 23.5219ZM16.3312 13.7313C17.4687 13.4875 18.6469 13.2844 19.9062 13.1219C19.5 13.7719 19.0937 14.4219 18.6875 15.1125C18.2812 15.8031 17.9156 16.4531 17.5906 17.1438C17.0625 15.9656 16.6562 14.8281 16.3312 13.7313ZM18.5656 19.2969C19.0937 18.2 19.6625 17.1031 20.3125 16.0063C20.9219 14.95 21.6125 13.8938 22.3031 12.8375C23.5219 12.7563 24.7406 12.7156 26 12.7156C27.3 12.7156 28.5187 12.7563 29.6969 12.8375C30.4281 13.8938 31.0781 14.95 31.6875 16.0063C32.3375 17.1031 32.9062 18.2 33.4344 19.2969C32.9062 20.3938 32.3375 21.4906 31.6875 22.5875C31.0781 23.6438 30.3875 24.7 29.6969 25.7563C28.4781 25.8375 27.2594 25.8781 26 25.8781C24.7 25.8781 23.4812 25.8375 22.3031 25.7563C21.5719 24.7 20.9219 23.6438 20.3125 22.5875C19.6625 21.4906 19.0937 20.3938 18.5656 19.2969ZM34.45 17.1031L33.3531 15.0719C32.9469 14.3813 32.5812 13.7313 32.1344 13.0813C33.3937 13.2438 34.5719 13.4469 35.7094 13.6906C35.3437 14.8281 34.9375 15.9656 34.45 17.1031ZM34.45 21.4906C34.9375 22.6281 35.3437 23.7656 35.7094 24.8625C34.5719 25.1063 33.3937 25.3094 32.1344 25.4719C32.5406 24.8219 32.9469 24.1719 33.3531 23.4813C33.7187 22.8719 34.0844 22.1813 34.45 21.4906ZM35.3844 35.5875C35.0594 35.7906 34.6531 35.8719 34.2062 35.8719C32.2156 35.8719 29.7375 34.2469 27.3 31.8094C28.4781 30.55 29.6156 29.1281 30.7531 27.5438C32.6625 27.3813 34.4906 27.0969 36.1969 26.6906C36.4 27.4219 36.5219 28.1531 36.6437 28.8844C37.2125 32.3375 36.7656 34.8156 35.3844 35.5875ZM37.4969 14.1781C42.0469 15.4781 44.7687 17.4688 44.7687 19.2969C44.7687 20.8813 42.9 22.4656 39.6094 23.725C38.9594 23.9688 38.2281 24.2125 37.4969 24.4156C36.9687 22.75 36.3187 21.0438 35.5062 19.2969C36.3187 17.55 37.0094 15.8438 37.4969 14.1781ZM34.2469 2.7219C34.6937 2.7219 35.0594 2.80315 35.425 3.00627C36.7656 3.77815 37.2531 6.21565 36.6844 9.7094C36.5625 10.4 36.4 11.1313 36.2375 11.9031C34.5312 11.5375 32.7031 11.2531 30.7937 11.05C29.6969 9.46565 28.5187 8.04377 27.3406 6.7844C29.7781 4.38752 32.2562 2.7219 34.2469 2.7219ZM28.275 10.8875C27.5437 10.8469 26.7719 10.8469 26 10.8469C25.2281 10.8469 24.4562 10.8469 23.725 10.8875C24.4562 9.91252 25.2281 9.01877 26 8.16565C26.7719 9.01877 27.5437 9.95315 28.275 10.8875ZM16.6156 3.00627C16.9406 2.80315 17.3469 2.7219 17.7937 2.7219C19.7844 2.7219 22.2625 4.3469 24.7 6.7844C23.5219 8.04377 22.3844 9.46565 21.2469 11.05C19.3375 11.2125 17.5094 11.4969 15.8031 11.9031C15.6 11.1719 15.4781 10.4406 15.3562 9.7094C14.7875 6.25627 15.2344 3.81877 16.6156 3.00627ZM14.5031 24.4156C9.95312 23.1156 7.23124 21.125 7.23124 19.2969C7.23124 17.7125 9.09999 16.1281 12.3906 14.8688C13.0406 14.625 13.7719 14.3813 14.5031 14.1781C15.0312 15.8438 15.6812 17.55 16.4937 19.2969C15.6812 21.0438 14.9906 22.7906 14.5031 24.4156ZM15.3562 28.8844C15.4781 28.1938 15.6406 27.4625 15.8031 26.6906C17.5094 27.0563 19.3375 27.3406 21.2469 27.5438C22.3437 29.1281 23.5219 30.55 24.7 31.8094C22.2625 34.2063 19.7844 35.8719 17.7937 35.8719C17.3469 35.8719 16.9812 35.7906 16.6156 35.5875C15.2344 34.8156 14.7875 32.3375 15.3562 28.8844ZM13.65 45.6219C14.5437 44.525 14.5844 43.3063 14.0969 42.0875C13.6094 40.8688 12.5937 40.3 11.3344 40.2594C9.83124 40.2188 8.28749 40.2594 6.78437 40.2594H6.49999V50.7813H7.71874V46.8H9.62812C9.87187 46.8 10.075 46.8813 10.1969 47.0844L12.6344 50.8625C12.675 50.9438 12.7969 51.0656 12.8781 51.0656H14.4625C13.4875 49.5625 12.5531 48.1406 11.5781 46.6781C12.4312 46.5563 13.1625 46.2719 13.65 45.6219ZM7.71874 45.5406V41.5188H8.16562C9.09999 41.5188 10.075 41.4781 11.0094 41.5594C12.1062 41.6 12.8781 42.4531 12.8781 43.55C12.8781 44.6469 11.9844 45.5 10.8875 45.5406C9.91249 45.5813 8.93749 45.5406 7.71874 45.5406ZM23.4406 46.0688C22.7906 43.225 20.1906 42.4938 18.2 43.3875C16.6562 44.0781 15.9656 45.4188 15.925 47.0844C15.8844 48.3438 16.25 49.4813 17.225 50.3344C18.3219 51.3094 19.6625 51.4313 21.0437 51.1875C21.8156 51.025 22.5062 50.6594 23.0344 50.0906C22.8312 49.8063 22.6281 49.5219 22.425 49.2781C21.2875 50.2531 20.0281 50.5781 18.6469 49.9281C17.7531 49.4813 17.3062 48.3844 17.225 47.5719H23.5219V47.0438C23.5625 46.6781 23.5219 46.3531 23.4406 46.0688ZM17.3062 46.7188C17.1844 45.5 18.4031 44.2 19.7437 44.2C21.2875 44.1594 22.2625 45.0938 22.3031 46.7188H17.3062ZM29.7781 43.1844C29.1687 43.0625 28.5187 43.0219 27.9094 43.0625C26.9344 43.1438 26.0812 43.5906 25.3906 44.3219C25.5937 44.6063 25.7562 44.8906 26 45.2156C26.0812 45.1344 26.1625 45.0531 26.2437 45.0125C26.8937 44.4031 27.6656 44.0781 28.6 44.1594C29.3312 44.2 30.0219 44.4438 30.225 45.175C30.3875 45.7438 30.3469 46.3531 30.3875 46.9625C30.2656 46.9625 30.225 46.9219 30.1844 46.8813C29.2094 46.0688 28.1125 45.9063 26.9344 46.1906C25.8375 46.475 25.1469 47.3281 25.0656 48.425C24.9844 49.6844 25.5531 50.6188 26.65 51.0656C27.3406 51.35 28.1125 51.35 28.8437 51.1875C29.4125 51.0656 29.6562 50.7406 30.4687 50.2938V50.8219H31.6062C31.6062 49.1969 31.6469 47.2063 31.6062 45.3375C31.6062 44.1594 30.9156 43.4281 29.7781 43.1844ZM30.3469 48.3031C30.3062 48.425 30.3469 48.5469 30.3469 48.6688C30.3469 49.5219 30.1437 49.8063 29.3312 50.1313C28.7625 50.3344 28.1531 50.4156 27.5437 50.2125C26.8531 50.0094 26.3656 49.4 26.3656 48.7094C26.325 48.0188 26.7719 47.3281 27.4625 47.125C28.3969 46.8 29.25 47.0031 30.0219 47.5719C30.2656 47.775 30.4281 47.9781 30.3469 48.3031ZM36.6844 44.2813C37.7406 43.9563 38.7156 44.1594 39.4469 45.0531L39.5687 45.1344C39.8531 44.8906 40.0969 44.6469 40.4219 44.3625C40.3 44.2406 40.2594 44.1594 40.1781 44.0375C39 42.7781 36.6844 42.6156 35.2625 43.6313C33.2719 45.0938 33.3125 47.9375 34.2875 49.4406C35.2219 50.8625 36.5625 51.35 38.1469 51.1469C39.0812 51.025 39.8531 50.5781 40.4625 49.8063C40.1781 49.5625 39.8937 49.3188 39.6094 49.0344C39.5281 49.1156 39.4875 49.1563 39.4469 49.2375C38.35 50.4563 36.5219 50.3344 35.5469 49.0344C34.9781 48.2625 34.8562 47.3688 35.0187 46.475C35.1 45.4594 35.6281 44.6469 36.6844 44.2813ZM45.1344 49.8063C45.0531 49.8469 45.0125 49.8875 45.0125 49.8875C44.6875 50.1313 44.3625 50.1719 43.9969 50.05C43.6312 49.8875 43.5906 49.5625 43.55 49.2375V44.6063C43.55 44.525 43.55 44.6875 43.5906 44.2813H45.1344V43.0625H43.5094V41.0313H42.2906V43.225H41.2344C41.1531 43.225 41.0312 43.3063 41.0312 43.3875C40.9906 43.6719 41.0312 43.875 41.0312 44.2813H42.3312V49.4813C42.3312 50.1313 42.4937 50.7 43.0625 51.025C43.6719 51.3906 44.85 51.3094 45.3781 50.8625C45.4594 50.8219 45.5 50.6594 45.5 50.6188C45.3781 50.375 45.2562 50.0906 45.1344 49.8063Z" fill="#61DAFB"/>
</svg>
