<svg width="52" height="52" viewBox="0 0 52 52" fill="none" xmlns="http://www.w3.org/2000/svg">
<path d="M36.0305 36.3164C37.9494 36.1071 39.4052 34.3646 39.339 32.2734C39.273 30.1823 37.6185 28.5093 35.6334 28.5093H35.5012C33.4496 28.5791 31.8616 30.3914 31.9278 32.5522C31.994 33.5978 32.3909 34.5039 32.9865 35.1313C30.7367 39.8016 27.2957 43.2171 22.1343 46.075C18.6272 48.0267 14.9878 48.7238 11.3484 48.236C8.37057 47.8177 6.05454 46.4237 4.59854 44.1232C2.48117 40.7077 2.28272 37.0133 4.0694 33.319C5.32675 30.6701 7.31168 28.7184 8.56903 27.7425C8.30436 26.8364 7.90725 25.3029 7.70879 24.1877C-1.88622 31.5067 -0.893549 41.4048 2.01804 46.075C4.20164 49.5604 8.63525 51.7212 13.532 51.7212C14.8553 51.7212 16.1787 51.5817 17.5023 51.2334C25.9724 49.4907 32.3911 44.193 36.0305 36.3164V36.3164ZM47.6769 27.673C42.6477 21.4691 35.2365 18.0537 26.7664 18.0537H25.7077C25.1121 16.799 23.8548 15.9624 22.4652 15.9624H22.3328C20.2816 16.0322 18.6936 17.8444 18.7596 20.0054C18.8258 22.0965 20.4801 23.7694 22.4652 23.7694H22.5974C24.0532 23.6997 25.3106 22.7238 25.8399 21.3994H27.0311C32.0602 21.3994 36.8245 22.9329 41.1259 25.9302C44.4344 28.2306 46.8166 31.2279 48.14 34.8525C49.2649 37.7801 49.1987 40.638 48.0076 43.0778C46.1549 46.7721 43.0448 48.7936 38.9421 48.7936C36.2952 48.7936 33.7807 47.957 32.4571 47.3296C31.7293 48.0267 30.4058 49.1419 29.4793 49.8392C32.3249 51.2332 35.2365 52 38.0156 52C44.3682 52 49.0665 48.3055 50.8531 44.6113C52.7721 40.5682 52.6396 33.5978 47.6769 27.673V27.673ZM14.0613 37.5011C14.1275 39.5924 15.7818 41.2651 17.7669 41.2651H17.8994C19.9507 41.1956 21.5388 39.3831 21.4725 37.2223C21.4065 35.131 19.7521 33.4583 17.7669 33.4583H17.6347C17.5023 33.4583 17.3036 33.4583 17.1716 33.5278C14.4584 28.7879 13.3335 23.6299 13.7306 18.0535C13.9951 13.8711 15.3187 10.2464 17.6347 7.24903C19.5536 4.66993 23.2592 3.41526 25.7739 3.34572C32.788 3.20622 35.7656 12.4072 35.9643 16.1017C36.8245 16.3107 38.2803 16.7988 39.273 17.1473C38.4788 5.85528 31.8616 0 25.5092 0C19.5536 0 14.0613 4.53086 11.8775 11.2225C8.8337 20.1447 10.8188 28.7184 14.5244 35.4798C14.1938 35.9676 13.9951 36.7345 14.0613 37.5013V37.5011Z" fill="#764ABC"/>
</svg>
