<svg width="52" height="52" viewBox="0 0 52 52" fill="none" xmlns="http://www.w3.org/2000/svg">
<path fill-rule="evenodd" clip-rule="evenodd" d="M0.495224 22.8134C0.495224 23.099 0.579318 23.2875 0.626443 23.4707C0.933568 24.6622 1.59372 25.6847 2.37697 26.6175C3.49254 27.9467 4.85876 29.0168 6.25829 30.0231C7.47216 30.8957 8.71082 31.7488 9.92957 32.615C10.1388 32.7637 10.3366 32.9347 10.5637 33.1171C10.3683 33.2227 10.2058 33.3157 10.0368 33.4015C8.42847 34.2172 6.88107 35.1317 5.45472 36.2395C4.5951 36.9074 3.76391 37.6171 3.17688 38.5446C2.23235 40.0363 1.89801 41.6256 2.60204 43.3225C2.8076 43.8181 3.12122 44.2463 3.56363 44.5628C3.70704 44.6652 3.86791 44.7667 4.03569 44.8065C4.46551 44.9077 4.90344 44.9739 5.33854 45.0539L6.57069 45.0531C7.93326 44.9317 9.17354 44.4649 10.2944 43.6914C12.0461 42.4824 13.2263 40.8614 13.7337 38.781C14.1026 37.269 14.1176 35.7553 13.6829 34.2501C13.6427 34.1104 13.5919 33.9735 13.5391 33.8382C13.4863 33.7029 13.4241 33.5713 13.351 33.4027L16.1444 31.7964L16.1862 31.8321C16.1354 31.9983 16.0814 32.164 16.0355 32.3318C15.7036 33.5441 15.483 34.7774 15.5622 36.0356C15.6467 37.3762 16.0209 38.6311 16.8058 39.7512C17.4403 40.6571 18.9524 40.6908 19.6268 39.7816C19.866 39.4587 20.098 39.1211 20.2723 38.7607C20.7277 37.8202 21.1494 36.8631 21.5845 35.9125L21.6604 35.7386C21.6292 36.1887 21.5926 36.584 21.5759 36.9797C21.5499 37.5976 21.5861 38.2119 21.7973 38.7997C21.9781 39.3027 22.2857 39.6784 22.8617 39.7447C23.2558 39.7897 23.5698 39.6094 23.8595 39.3807C24.312 39.0236 24.6797 38.5824 24.9527 38.0811C25.725 36.6628 26.518 35.2532 27.2179 33.7992C27.9752 32.2266 28.6374 30.6081 29.3406 29.0087L29.4568 28.7251C29.6229 29.378 29.7387 30.0174 29.952 30.6227C30.1998 31.3251 30.5065 32.0109 30.8405 32.6775C30.9985 32.9924 30.9802 33.1967 30.7613 33.4608C29.8448 34.5658 28.9441 35.6842 28.0426 36.8014C27.8432 37.048 27.6445 37.299 27.4783 37.5684C27.378 37.7321 27.3114 37.9316 27.2833 38.1225C27.2293 38.4873 27.4548 38.8391 27.8452 38.9232C28.2019 39 28.5817 39.0284 28.9453 39.0016C30.2035 38.909 31.3458 38.4674 32.3558 37.7191C33.6643 36.7498 34.0844 35.427 33.7675 33.8593C33.6818 33.434 33.5303 33.0204 33.3828 32.6105C33.3166 32.4257 33.3121 32.2961 33.4328 32.1238C34.4788 30.63 35.3726 29.0452 36.2038 27.4239C36.2367 27.3601 36.2704 27.2963 36.3281 27.2281C36.5974 28.6297 37.0029 29.9804 37.7293 31.2061C37.3588 31.5632 36.9919 31.887 36.66 32.2437C35.9292 33.0293 35.2954 33.8825 34.9647 34.9229C34.8225 35.3714 34.7133 35.8272 34.7766 36.3062C34.8749 37.05 35.4843 37.5334 36.216 37.364C37.7817 37.0017 39.1333 36.2639 40.1208 34.957C40.7855 34.0771 40.846 33.0956 40.5677 32.0673C40.4913 31.7878 40.4008 31.5128 40.3033 31.1923C40.6896 31.0724 41.0662 30.9286 41.4558 30.8397C43.4785 30.3782 45.4793 30.4586 47.4285 31.189C48.5664 31.6156 49.4857 32.3294 50.0309 33.4522C50.6968 34.825 50.3287 36.1274 49.0348 36.9952C48.9141 37.076 48.776 37.1398 48.6761 37.2409C48.6147 37.3031 48.5778 37.4274 48.5928 37.5131C48.6013 37.5631 48.7333 37.6257 48.8093 37.6248C49.2347 37.6216 49.5796 37.3986 49.9107 37.1694C50.7402 36.5954 51.3455 35.8231 51.4759 34.8063L51.5015 34.7299L51.4703 34.0677C51.4577 34.0295 51.4796 33.9917 51.4768 33.9629C51.3004 32.4821 50.5095 31.3337 49.359 30.4334C48.0265 29.3914 46.4531 28.9624 44.7891 28.8945C43.433 28.8393 42.1001 29.0408 40.822 29.5051C40.4576 29.6372 40.0965 29.7936 39.73 29.941C39.6809 29.8521 39.6281 29.7667 39.5846 29.6786C39.2084 28.9083 38.7526 28.1722 38.6518 27.289C38.5803 26.6618 38.4926 26.0353 38.6417 25.415C38.7851 24.8182 38.972 24.2316 39.1479 23.6429C39.2385 23.3399 39.1747 23.1701 38.8854 23.0336C38.7847 22.986 38.675 22.9446 38.5661 22.9287C37.8552 22.8256 37.154 22.8845 36.4654 23.0847C36.2217 23.1558 36.0445 23.2923 35.9905 23.5621C35.9596 23.7169 35.8967 23.8652 35.8528 24.0179C35.6728 24.6529 35.5453 25.3 35.2544 25.9049C34.5256 27.4223 33.6936 28.8823 32.8421 30.3318C32.7498 30.4882 32.6528 30.6418 32.5366 30.8315C32.2376 30.2059 31.9187 29.6445 31.822 28.9863C31.7127 28.2421 31.6266 27.4991 31.8118 26.7605C31.9495 26.2096 32.1295 25.6689 32.2953 25.1253C32.3737 24.867 32.3375 24.7313 32.1035 24.5952C31.9853 24.5265 31.8516 24.4656 31.7184 24.4457C30.981 24.3364 30.2547 24.3937 29.5433 24.6236C29.3227 24.6951 29.2069 24.8377 29.1395 25.0652C28.9413 25.7363 28.7723 26.4237 28.494 27.0619C27.367 29.6457 26.2076 32.216 25.0494 34.786C24.8077 35.3226 24.5245 35.8406 24.2519 36.363C24.1828 36.4955 24.0821 36.6121 23.996 36.7364C23.9269 36.6547 23.9001 36.5987 23.9005 36.5426C23.9025 36.2123 23.8631 35.8723 23.9261 35.553C24.1166 34.5869 24.336 33.6261 24.5672 32.669C24.7581 31.8784 24.9803 31.0952 25.192 30.3099C25.2631 30.0471 25.2643 29.8013 25.0754 29.5803C24.7581 29.2102 24.0951 29.1289 23.7018 29.4141L23.528 29.5124L23.5617 29.2321C23.6446 28.6313 23.6612 28.0325 23.4963 27.4406C23.2907 26.7028 22.7642 26.2783 21.9988 26.3018C21.6422 26.3128 21.2676 26.3737 20.9373 26.5037C19.5483 27.0481 18.4803 28.0122 17.5711 29.172C17.4887 29.2772 17.3798 29.3731 17.2636 29.4377C16.0883 30.0893 14.9094 30.7328 13.7308 31.3787L12.4191 32.0974C12.0673 31.7618 11.7475 31.4137 11.3848 31.1183C10.2769 30.2148 9.15119 29.3337 8.03563 28.4403C7.04682 27.6486 6.08888 26.8239 5.35601 25.7753C4.81082 24.9953 4.45941 24.1418 4.42569 23.1774C4.38304 21.9485 4.7316 20.8256 5.35722 19.7803C6.15754 18.4429 7.24913 17.3696 8.44919 16.3975C9.71872 15.3697 11.0918 14.497 12.5149 13.7004C14.506 12.586 16.5539 11.5997 18.7497 10.9484C21.0011 10.2806 23.2854 9.89828 25.6417 10.1648C26.5679 10.2696 27.4674 10.4817 28.2933 10.9346C28.9258 11.2812 29.4446 11.7349 29.6859 12.4442C29.924 13.1422 29.9167 13.8495 29.7517 14.5584C29.4166 15.9941 28.6305 17.1775 27.6413 18.2349C26.0187 19.9684 24.0394 21.1486 21.8112 21.9282C20.5254 22.3779 19.2026 22.6602 17.8441 22.7744C16.7355 22.8674 15.65 22.7691 14.6002 22.3836C13.9051 22.128 13.2998 21.7372 12.8131 21.1701C12.7262 21.0685 12.6149 20.9584 12.4528 21.0535C12.2939 21.1469 12.2659 21.2981 12.3191 21.4512C12.4081 21.7055 12.4902 21.9704 12.6287 22.1979C12.9768 22.7687 13.4847 23.1827 14.0437 23.5377C15.1174 24.2206 16.3174 24.4502 17.5618 24.5034C19.45 24.585 21.2924 24.3031 23.1087 23.7965C25.7018 23.0734 27.9565 21.7961 29.7647 19.7811C31.2703 18.1033 32.3456 16.2098 32.576 13.9234C32.6885 12.8074 32.5687 11.7142 32.0462 10.6962C31.4795 9.59319 30.5784 8.77297 29.5011 8.20788C27.9321 7.38522 26.2389 6.90625 24.4912 6.90625H22.7403C20.6237 6.90625 18.5774 7.51278 16.5884 8.23631C15.0828 8.78434 13.6065 9.43109 12.1733 10.1469C9.05207 11.7065 6.14535 13.587 3.75782 16.1728C2.56832 17.461 1.56122 18.8825 0.981912 20.5562C0.812505 21.0462 0.65163 21.5715 0.530568 22.0781L0.495224 22.8134ZM11.8402 36.7083C11.7049 38.5198 10.8838 39.9884 9.54201 41.1779C8.78719 41.8466 7.92147 42.3227 6.91316 42.4901C6.54754 42.5506 6.17338 42.5652 5.81872 42.4137C5.31294 42.1976 5.1996 41.7487 5.18985 41.2705C5.17482 40.5084 5.44172 39.8194 5.80776 39.1637C6.28551 38.309 6.98588 37.6573 7.73379 37.0488C8.91191 36.0896 10.19 35.2779 11.4989 34.5117L11.5976 34.4711C11.7999 35.2186 11.8962 35.9568 11.8402 36.7083ZM22.0606 28.8356C21.9651 29.4141 21.8457 29.993 21.6767 30.5537C21.0925 32.4943 20.3422 34.3748 19.5309 36.2302C19.381 36.5735 19.1628 36.8867 18.9731 37.2121C18.9438 37.2625 18.9004 37.3059 18.8581 37.3478C18.6233 37.5797 18.4007 37.5676 18.2821 37.2641C18.1439 36.9115 18.059 36.5341 17.9859 36.1607C17.9368 35.9101 17.9485 35.6468 17.9331 35.3901C17.9489 33.5644 18.5059 31.9052 19.4508 30.3607C19.8404 29.7237 20.2646 29.1167 20.9125 28.7137C21.1116 28.5898 21.335 28.4903 21.5605 28.4269C21.9058 28.3298 22.1179 28.4895 22.0606 28.8356ZM29.0335 37.7195L31.5396 34.7933C31.644 35.88 29.7968 38.0494 29.0335 37.7195ZM37.0378 35.7504C36.8607 35.852 36.6677 35.9251 36.4861 36.0189C36.32 36.1051 36.2651 36.0181 36.2603 35.8751C36.257 35.778 36.2712 35.6765 36.298 35.5822C36.6364 34.3887 37.2592 33.3698 38.1859 32.541L38.2509 32.5077C38.6917 33.7407 38.1822 35.0947 37.0378 35.7504Z" fill="#CB6699"/>
</svg>
