<svg width="34" height="34" viewBox="0 0 34 34" fill="none" xmlns="http://www.w3.org/2000/svg">
<path d="M16.9999 0C12.9633 0.000171625 9.05837 1.47303 5.98394 4.15504C2.90952 6.83705 0.866192 10.5532 0.219571 14.6385C-0.427049 18.7239 0.365234 22.9118 2.45466 26.453C4.54408 29.9942 7.7943 32.6576 11.6237 33.9666C12.4737 34.1192 12.7925 33.5963 12.7925 33.1387C12.7925 32.7248 12.7712 31.3521 12.7712 29.8924C8.49999 30.6985 7.39499 28.8249 7.055 27.8444C6.67773 26.8909 6.07967 26.0459 5.31251 25.3824C4.71751 25.0556 3.86752 24.2494 5.29124 24.2277C5.83488 24.2882 6.35628 24.4821 6.81127 24.7931C7.26626 25.1041 7.64143 25.523 7.90499 26.0142C8.1375 26.4425 8.45014 26.8195 8.82501 27.1236C9.19987 27.4278 9.62959 27.6531 10.0895 27.7867C10.5495 27.9203 11.0306 27.9595 11.5054 27.9021C11.9801 27.8447 12.4391 27.6918 12.8562 27.4522C12.9298 26.5661 13.3149 25.7376 13.9399 25.121C10.1575 24.6852 6.205 23.1818 6.205 16.5149C6.18111 14.7827 6.80456 13.1067 7.94749 11.8306C7.42777 10.3251 7.48858 8.67283 8.11749 7.2117C8.11749 7.2117 9.54118 6.75415 12.7925 8.99827C15.5741 8.21388 18.5107 8.21388 21.2924 8.99827C24.5436 6.73238 25.9674 7.2117 25.9674 7.2117C26.5964 8.67281 26.6572 10.3251 26.1374 11.8306C27.2837 13.1045 27.9077 14.7819 27.8798 16.5149C27.8798 23.2036 23.9061 24.6852 20.1237 25.121C20.5294 25.5426 20.8418 26.0488 21.0398 26.6052C21.2378 27.1616 21.3167 27.7551 21.2711 28.3455C21.2711 30.6768 21.2499 32.5505 21.2499 33.1388C21.2499 33.5963 21.5686 34.141 22.4186 33.9667C26.2413 32.647 29.4822 29.9774 31.5627 26.4344C33.6433 22.8914 34.428 18.7055 33.7769 14.6242C33.1258 10.5428 31.0812 6.83145 28.0081 4.15271C24.9351 1.47397 21.0335 0.00215244 16.9999 0V0Z" fill="#FFF5F5"/>
</svg>
