<svg width="30" height="30" viewBox="0 0 30 30" fill="none" xmlns="http://www.w3.org/2000/svg">
<path d="M14.9999 0C11.4382 0.000151434 7.99268 1.29973 5.27995 3.66621C2.56722 6.03269 0.764287 9.31163 0.193739 12.9163C-0.376808 16.5211 0.322265 20.2163 2.16587 23.3409C4.00948 26.4655 6.87732 28.8156 10.2562 29.9706C11.0062 30.1052 11.2875 29.6438 11.2875 29.24C11.2875 28.8748 11.2687 27.6637 11.2687 26.3756C7.49999 27.0869 6.52499 25.4337 6.225 24.5686C5.89211 23.7272 5.36442 22.9816 4.68751 22.3962C4.16251 22.1079 3.41252 21.3966 4.66874 21.3774C5.14842 21.4307 5.60848 21.6019 6.00994 21.8763C6.41141 22.1507 6.74244 22.5203 6.97499 22.9537C7.18015 23.3316 7.45601 23.6642 7.78677 23.9326C8.11753 24.201 8.49669 24.3998 8.90253 24.5177C9.30836 24.6355 9.73289 24.6701 10.1518 24.6195C10.5707 24.5688 10.9757 24.4339 11.3437 24.2225C11.4086 23.4407 11.7485 22.7096 12.3 22.1656C8.96248 21.7811 5.475 20.4546 5.475 14.572C5.45392 13.0435 6.00403 11.5647 7.01249 10.4388C6.55392 9.11036 6.60757 7.6525 7.16249 6.36327C7.16249 6.36327 8.41869 5.95954 11.2875 7.93965C13.7419 7.24754 16.333 7.24754 18.7874 7.93965C21.6561 5.94033 22.9124 6.36327 22.9124 6.36327C23.4674 7.65248 23.521 9.11037 23.0624 10.4388C24.0739 11.5628 24.6245 13.0429 24.5999 14.572C24.5999 20.4738 21.0936 21.7811 17.7562 22.1656C18.1141 22.5376 18.3898 22.9842 18.5645 23.4751C18.7392 23.9661 18.8089 24.4898 18.7687 25.0108C18.7687 27.0678 18.7499 28.721 18.7499 29.2401C18.7499 29.6438 19.0311 30.1244 19.7811 29.9706C23.1541 28.8062 26.0137 26.4506 27.8495 23.3244C29.6852 20.1983 30.3777 16.5049 29.8031 12.9037C29.2286 9.30244 27.4246 6.02775 24.7131 3.66415C22.0015 1.30056 18.559 0.00189921 14.9999 0V0Z" fill="#FFF5F5"/>
</svg>
