<svg width="34" height="34" viewBox="0 0 34 34" fill="none" xmlns="http://www.w3.org/2000/svg">
<path d="M31.1167 0.333363H2.88333C2.56596 0.328955 2.25084 0.387109 1.95594 0.504503C1.66105 0.621896 1.39217 0.796231 1.16466 1.01755C0.937154 1.23887 0.75547 1.50284 0.629988 1.79438C0.504505 2.08592 0.437682 2.39933 0.433334 2.7167V31.2834C0.437682 31.6007 0.504505 31.9141 0.629988 32.2057C0.75547 32.4972 0.937154 32.7612 1.16466 32.9825C1.39217 33.2038 1.66105 33.3782 1.95594 33.4956C2.25084 33.613 2.56596 33.6711 2.88333 33.6667H31.1167C31.434 33.6711 31.7492 33.613 32.0441 33.4956C32.3389 33.3782 32.6078 33.2038 32.8353 32.9825C33.0628 32.7612 33.2445 32.4972 33.37 32.2057C33.4955 31.9141 33.5623 31.6007 33.5667 31.2834V2.7167C33.5623 2.39933 33.4955 2.08592 33.37 1.79438C33.2445 1.50284 33.0628 1.23887 32.8353 1.01755C32.6078 0.796231 32.3389 0.621896 32.0441 0.504503C31.7492 0.387109 31.434 0.328955 31.1167 0.333363V0.333363ZM10.4833 28.2334H5.48333V13.2334H10.4833V28.2334ZM7.98333 11.1334C7.29377 11.1334 6.63245 10.8594 6.14486 10.3718C5.65726 9.88425 5.38333 9.22293 5.38333 8.53336C5.38333 7.8438 5.65726 7.18248 6.14486 6.69489C6.63245 6.20729 7.29377 5.93336 7.98333 5.93336C8.34949 5.89184 8.72029 5.92812 9.07146 6.03984C9.42262 6.15155 9.74623 6.33618 10.0211 6.58163C10.296 6.82709 10.5159 7.12783 10.6665 7.46417C10.817 7.80051 10.8949 8.16486 10.8949 8.53336C10.8949 8.90187 10.817 9.26622 10.6665 9.60256C10.5159 9.9389 10.296 10.2396 10.0211 10.4851C9.74623 10.7305 9.42262 10.9152 9.07146 11.0269C8.72029 11.1386 8.34949 11.1749 7.98333 11.1334V11.1334ZM28.5167 28.2334H23.5167V20.1834C23.5167 18.1667 22.8 16.85 20.9833 16.85C20.4211 16.8541 19.8736 17.0305 19.4147 17.3553C18.9558 17.6801 18.6075 18.1378 18.4167 18.6667C18.2862 19.0584 18.2297 19.471 18.25 19.8834V28.2167H13.25C13.25 28.2167 13.25 14.5834 13.25 13.2167H18.25V15.3334C18.7042 14.5452 19.3648 13.8959 20.1607 13.4554C20.9566 13.0148 21.8576 12.7998 22.7667 12.8334C26.1 12.8334 28.5167 14.9834 28.5167 19.6V28.2334Z" fill="#FFFCFC"/>
</svg>
