<svg width="31" height="31" viewBox="0 0 31 31" fill="none" xmlns="http://www.w3.org/2000/svg">
<path d="M28.215 0.33334H2.65164C2.36429 0.329373 2.07896 0.38171 1.81195 0.487363C1.54495 0.593016 1.3015 0.749915 1.0955 0.949099C0.889509 1.14828 0.725007 1.38585 0.611391 1.64824C0.497775 1.91062 0.437271 2.19268 0.433334 2.47831V28.1879C0.437271 28.4736 0.497775 28.7556 0.611391 29.018C0.725007 29.2804 0.889509 29.518 1.0955 29.7172C1.3015 29.9163 1.54495 30.0732 1.81195 30.1789C2.07896 30.2845 2.36429 30.3369 2.65164 30.3329H28.215C28.5024 30.3369 28.7877 30.2845 29.0547 30.1789C29.3217 30.0732 29.5652 29.9163 29.7712 29.7172C29.9772 29.518 30.1417 29.2804 30.2553 29.018C30.3689 28.7556 30.4294 28.4736 30.4333 28.1879V2.47831C30.4294 2.19268 30.3689 1.91062 30.2553 1.64824C30.1417 1.38585 29.9772 1.14828 29.7712 0.949099C29.5652 0.749915 29.3217 0.593016 29.0547 0.487363C28.7877 0.38171 28.5024 0.329373 28.215 0.33334V0.33334ZM9.53293 25.443H5.00577V11.9432H9.53293V25.443ZM7.26935 10.0532C6.645 10.0532 6.04622 9.80667 5.60473 9.36784C5.16325 8.92901 4.91523 8.33383 4.91523 7.71324C4.91523 7.09264 5.16325 6.49746 5.60473 6.05863C6.04622 5.6198 6.645 5.37327 7.26935 5.37327C7.60088 5.3359 7.93662 5.36855 8.25457 5.46909C8.57253 5.56964 8.86554 5.7358 9.11441 5.9567C9.36328 6.17761 9.5624 6.44827 9.69873 6.75097C9.83507 7.05367 9.90554 7.38159 9.90554 7.71324C9.90554 8.04489 9.83507 8.3728 9.69873 8.6755C9.5624 8.9782 9.36328 9.24886 9.11441 9.46977C8.86554 9.69067 8.57253 9.85684 8.25457 9.95738C7.93662 10.0579 7.60088 10.0906 7.26935 10.0532V10.0532ZM25.8609 25.443H21.3337V18.1981C21.3337 16.3831 20.6848 15.1981 19.04 15.1981C18.5309 15.2018 18.0352 15.3605 17.6197 15.6529C17.2042 15.9452 16.8888 16.3571 16.716 16.8331C16.5979 17.1857 16.5468 17.557 16.5651 17.9281V25.428H12.038C12.038 25.428 12.038 13.1582 12.038 11.9282H16.5651V13.8332C16.9764 13.1238 17.5745 12.5394 18.2952 12.143C19.0158 11.7465 19.8316 11.553 20.6547 11.5832C23.6728 11.5832 25.8609 13.5182 25.8609 17.6731V25.443Z" fill="#FFFCFC"/>
</svg>
