<svg width="37" height="37" viewBox="0 0 37 37" fill="none" xmlns="http://www.w3.org/2000/svg">
<path d="M18.5 0.73999C8.69131 0.73999 0.740005 8.69129 0.740005 18.5C0.740005 28.3087 8.69131 36.26 18.5 36.26C28.3087 36.26 36.26 28.3087 36.26 18.5C36.26 8.69129 28.3087 0.73999 18.5 0.73999ZM11.5274 12.95H25.4394C26.1775 12.95 25.7964 13.8972 25.395 14.1395C24.9935 14.38 19.438 17.7415 19.2289 17.8654C19.0199 17.9894 18.7535 18.0504 18.4834 18.0504C18.2234 18.0558 17.9668 17.9919 17.7397 17.8654L11.5718 14.1395C11.1703 13.8972 10.7911 12.95 11.5274 12.95ZM25.9 23.125C25.9 23.5135 25.4338 24.05 25.0786 24.05H11.9214C11.5662 24.05 11.1 23.5135 11.1 23.125V16.378C11.1 16.2078 11.0963 15.9877 11.4182 16.1745L17.7397 19.9023C17.9628 20.0387 18.2224 20.1033 18.4834 20.0873C18.7535 20.0873 18.9496 20.0669 19.2289 19.9023L25.5818 16.1764C25.9037 15.9877 25.9 16.2097 25.9 16.3799V23.125Z" fill="white"/>
</svg>
